<svg width="375" height="19" viewBox="0 0 375 19" fill="none" xmlns="http://www.w3.org/2000/svg">
<path d="M0 9.5H179" stroke="#E0E0E0"/>
<path d="M187.446 14.126C186.728 14.126 186.074 13.9627 185.486 13.636C184.908 13.3093 184.45 12.8473 184.114 12.25C183.788 11.6433 183.624 10.9433 183.624 10.15C183.624 9.366 183.792 8.67533 184.128 8.078C184.474 7.47133 184.94 7.00933 185.528 6.692C186.116 6.36533 186.774 6.202 187.502 6.202C188.23 6.202 188.888 6.36533 189.476 6.692C190.064 7.00933 190.526 7.46667 190.862 8.064C191.208 8.66133 191.38 9.35667 191.38 10.15C191.38 10.9433 191.203 11.6433 190.848 12.25C190.503 12.8473 190.032 13.3093 189.434 13.636C188.837 13.9627 188.174 14.126 187.446 14.126ZM187.446 13.006C187.904 13.006 188.333 12.8987 188.734 12.684C189.136 12.4693 189.458 12.1473 189.7 11.718C189.952 11.2887 190.078 10.766 190.078 10.15C190.078 9.534 189.957 9.01133 189.714 8.582C189.472 8.15267 189.154 7.83533 188.762 7.63C188.37 7.41533 187.946 7.308 187.488 7.308C187.022 7.308 186.592 7.41533 186.2 7.63C185.818 7.83533 185.51 8.15267 185.276 8.582C185.043 9.01133 184.926 9.534 184.926 10.15C184.926 10.7753 185.038 11.3027 185.262 11.732C185.496 12.1613 185.804 12.4833 186.186 12.698C186.569 12.9033 186.989 13.006 187.446 13.006Z" fill="#525252"/>
<path d="M196 9.5H375" stroke="#E0E0E0"/>
</svg>
