<svg width="74" height="74" viewBox="0 0 74 74" fill="none" xmlns="http://www.w3.org/2000/svg">
<g filter="url(#filter0_d_3631_54494)">
<path d="M10 22C10 15.3726 15.3726 10 22 10H52C58.6274 10 64 15.3726 64 22V62C64 63.1046 63.1046 64 62 64H22C15.3726 64 10 58.6274 10 52V22Z" fill="#0067EE"/>
<path d="M35.2461 19.0371C36.7894 19.1844 39.2534 19.7262 41.8665 20.3872V28.3596C40.1584 28.0791 38.7203 27.8687 38.0082 27.8091C35.3303 27.5864 29.4516 29.7377 29.6761 37.0001C29.9006 44.2625 36.0721 45.7282 36.9981 45.7282C37.3225 45.7282 39.3534 45.4793 41.8753 45.1514V53.2413C40.4601 53.6517 39.0693 54.0794 37.7803 54.5038C31.5368 56.5885 21.4948 52.3454 20.9143 37.1789C20.3338 22.0125 30.5635 18.5917 35.2461 19.0371Z" fill="white"/>
<path d="M53.0961 23.5713V30.3375C53.0961 30.3375 48.6222 29.5081 44.4658 28.7963V21.0815C48.9414 22.2773 53.0961 23.5713 53.0961 23.5713Z" fill="white"/>
<path d="M44.4658 44.8112C48.6836 44.252 53.0961 43.6488 53.0961 43.6488V50.3413C53.0961 50.3413 49.0273 51.2706 44.4658 52.5172V44.8112Z" fill="white"/>
</g>
<defs>
<filter id="filter0_d_3631_54494" x="0" y="0" width="74" height="74" filterUnits="userSpaceOnUse" color-interpolation-filters="sRGB">
<feFlood flood-opacity="0" result="BackgroundImageFix"/>
<feColorMatrix in="SourceAlpha" type="matrix" values="0 0 0 0 0 0 0 0 0 0 0 0 0 0 0 0 0 0 127 0" result="hardAlpha"/>
<feOffset/>
<feGaussianBlur stdDeviation="5"/>
<feComposite in2="hardAlpha" operator="out"/>
<feColorMatrix type="matrix" values="0 0 0 0 0 0 0 0 0 0.403922 0 0 0 0 0.933333 0 0 0 0.5 0"/>
<feBlend mode="normal" in2="BackgroundImageFix" result="effect1_dropShadow_3631_54494"/>
<feBlend mode="normal" in="SourceGraphic" in2="effect1_dropShadow_3631_54494" result="shape"/>
</filter>
</defs>
</svg>
